<?xml version="1.0" encoding="UTF-8"?>
<svg xmlns="http://www.w3.org/2000/svg" version="1.1" viewBox="0 0 1024 1024">
  <!-- Generator: Adobe Illustrator 28.6.0, SVG Export Plug-In . SVG Version: 1.2.0 Build 709)  -->
  <g>
    <g id="Layer_1">
      <path d="M784.17,587.96c5.58,20.84,6.48,41.87,5.74,62.93-1.14,32.5-8,63.86-20.59,93.89-12.79,30.5-31.11,57.35-54.16,80.98-26.52,27.2-57.5,47.74-92.61,62.34-21.8,9.07-44.34,15.54-67.45,19.61-15.03,2.64-30.43,3.65-45.71,4.31-15.76.68-31.69,1.19-47.34-.31-20.03-1.91-39.97-5.31-59.74-9.17-21.53-4.2-42.11-11.73-61.69-21.66-10.17-5.15-19.95-11.09-28.86-16.08-11.72,8.15-22.55,17.09-34.64,23.73-14.13,7.75-29.91,11.49-46.14,12.47-32.47,1.95-60.13-9.53-84.66-30.1-19.73-16.55-33.68-37.26-44.47-60.35-9.46-20.24-15.83-41.42-17.78-63.67-1.32-14.99-2.58-30.14-1.83-45.12,1.49-29.64,8.36-58.07,26.98-82.07,17.97-23.16,40.68-39.4,70.76-42.79,7.98-.9,16.08-.81,25.15-1.23.44-1.3,1.39-3.88,2.18-6.51,11.51-38.46,30.17-72.88,56.73-103.17,25.72-29.33,56.04-52.06,91.96-67.26,5.31-2.25,10.84-4,16.34-5.73,2.75-.86,3.75-2.17,3.73-5.19-.13-25.15-.11-50.31,0-75.47.03-7.54.79-15.08.74-22.61-.12-18.55-.58-37.1-.77-55.65-.13-12.6-.04-25.21-.04-37.82,0-17.15-.04-34.31,0-51.46.02-9.96,1.18-19.48,11.97-24,2.52-1.06,5.41-1.74,8.13-1.76,15.83-.15,31.67,0,47.5-.06,21.25-.08,42.5-.31,63.75-.35,14.31-.03,28.61.21,42.92.26,19.44.06,38.88.08,58.32.08,39.08,0,78.16,0,117.25-.09,24.56-.05,49.13-.37,73.69-.36,32.76.02,65.52.28,98.28.36,9.08.02,18.16-.2,27.24-.34,10.4-.15,18.95,8.3,18.94,18.75-.02,21.97-.05,43.94-.05,65.9.01,34.94.06,69.89.08,104.83.01,25.02-.12,50.04.04,75.05.12,18.36.74,36.72.88,55.08.16,21.83.04,43.67.03,65.5,0,22,.04,44.01-.01,66.01-.02,10.58-7.96,18.4-18.63,18.29-16.44-.16-32.88-.67-49.32-.66-20.51.01-41.02.44-61.53.61-10.37.09-20.73.02-31.34.02ZM473.23,590.24c21.95,28.57,30.88,60.62,26.96,96.38-3.92,35.66-17.99,66.26-44.26,90.96-11.03,10.37-23.42,18.47-38.09,22.78-7.79,2.28-15.77.31-18.95-4.58-4.77-7.32-3.39-19.61,7.24-24.54,9.98-4.62,20.33-10.05,28.05-17.63,28.43-27.93,40.29-61.97,32.69-101.69-3.08-16.12-9.78-30.8-20.71-43.34-2.17-2.49-4.11-2.78-7.3-1.76-14.55,4.66-29.35,8.33-44.77,8.29-2.28,0-5.1-.84-6.73-2.33-5.38-4.91-7.93-11.03-5.41-18.39,2.31-6.77,7.53-9.68,14.3-10.42,26.46-2.88,50.31-11.54,70.87-29.27,21.67-18.69,32.6-42.15,32.26-70.22-.26-20.98-11.78-37.16-27.5-50.24-13.29-11.06-29.39-14.97-46.12-16.12-17.74-1.22-34.89,2.31-51.59,8.2-24.27,8.55-45.18,22.48-64.47,39.29-17.31,15.09-31.8,32.5-43.93,51.84-13.99,22.29-23.85,46.26-30.48,71.88-5,19.33-6.23,38.88-6.84,58.46-.38,12.46,2.26,25,3.48,37.52,2.17,22.27,9.46,43.15,19.25,62.89,13.35,26.93,31.28,50.62,53.95,70.8,21.53,19.17,46.26,32.55,72.63,43.24,22.66,9.19,46.67,13.42,70.74,16.59,23.5,3.1,47.15,3.63,70.85,1.32,23.16-2.26,46.01-6.02,68.15-13.22,37.27-12.12,70.89-30.73,99.07-58.22,24.89-24.28,43.95-52.55,56.34-85.27,7.62-20.11,12-40.89,13.93-62.15,1.01-11.16,1.05-22.52.26-33.7-.93-13.25-3.23-26.41-5.02-40.28-12.62,0-24.07.02-35.52,0-40.97-.11-81.94-.17-122.91-.36-35.49-.17-70.98-.4-106.47-.84-5.09-.06-9.89-.4-13.93,4.13ZM702.43,296.29c1-2.08,1.78-3.71,2.58-5.33,3.73-7.51,11.54-10.52,20.64-7.97,6.77,1.9,10.38,7.69,9.42,15.89-1.59,13.65-3.61,27.26-5.11,40.92-1.53,13.96-3.07,27.94-3.82,41.95-.57,10.64,8.94,16.52,18.26,11.52,11.98-6.43,21.09-15.78,24.5-29.28,4.89-19.34,4.59-38.71-1.07-57.98-5.56-18.93-15.46-34.99-31.81-46.17-14.59-9.98-30.33-16.84-48.67-18.24-15.16-1.16-29.89-.32-44.23,3.61-25.62,7.01-45.48,22.6-60.43,44.42-11.63,16.98-18.86,35.77-20.48,56.29-1.1,13.87-.79,27.94,3.37,41.41,7.24,23.4,19.87,42.55,42.02,55.06,16.41,9.27,33.64,14.69,52.23,15.49,21.69.94,41.9-5,60.9-15.21,5.94-3.19,11.65-2,17.01,1,5.12,2.86,6.7,7.67,6.43,13.5-.35,7.53-4.34,12.29-10.54,15.7-11.83,6.5-24.34,11.13-37.62,13.67-20.36,3.89-40.77,4.98-61.13.39-21.74-4.9-41.94-13.32-59.27-27.67-6.19-5.12-11.99-10.7-19.66-17.59-7.81,8.57-15.83,17.26-23.67,26.11-.94,1.06-1.2,3-1.22,4.53-.1,10.05.51,20.15-.17,30.15-.98,14.41-5.76,27.79-13.31,40.14-2.46,4.03-4.93,8.04-7.66,12.49h383.6c-19.69-17.49-38.32-34.18-57.11-50.69-16.19-14.23-32.63-28.17-48.82-42.4-6.72-5.91-13.61-11.77-19.43-18.5-5.43-6.28-3.93-17.38,1.81-22.23,4.79-4.04,15.28-3.2,20.93,1.74,11.76,10.26,23.5,20.53,35.23,30.81,25.36,22.22,50.71,44.46,76.09,66.66,3.4,2.98,6.94,5.81,11.05,9.24.3-1.77.54-2.53.54-3.28.02-11.59.1-23.18-.03-34.77-.16-13.82-.71-27.64-.76-41.47-.12-31.06-.02-62.12-.04-93.18-.01-21.24-.09-42.47-.12-63.71-.02-17.84.1-35.69-.03-53.53-.08-10.34-.62-20.68-.75-31.02-.05-3.45.81-6.92.74-10.37-.11-6.09,1.43-12.38-1.54-18.56-.99.81-1.68,1.28-2.25,1.86-11.29,11.53-22.53,23.12-33.85,34.62-24.27,24.65-48.56,49.3-72.93,73.85-2.41,2.43-3.1,4.43-1.7,7.74,1.13,2.67,1.12,5.83,1.56,8.78,4,27,3.46,53.59-8.21,78.9-8.84,19.19-22.58,33.4-43.33,39.58-13.65,4.07-26.58,2.58-37.9-6.74-4.43-3.65-8.48-7.74-12.76-11.68-3.83,3.33-7.61,7.4-12.11,10.4-13.39,8.93-28.13,12.02-44.05,8.87-31.02-6.15-50.36-28.03-51.59-59.16-.46-11.59.95-23.21,4.92-34.22,7.06-19.59,17.04-37.16,36.4-47.28,12.54-6.56,25.65-9.19,39.89-5.88,11.46,2.66,20.63,8.69,29.06,16.8ZM784.43,262.97c36.56-37.16,73.07-74.27,110.54-112.36h-472.17c44.61,40.21,88.79,80.02,133.32,120.16,28.04-37.19,64.52-60.91,112.44-62.57,47.55-1.64,86.93,15.66,115.86,54.76ZM198.92,609.53c-7.71-2.24-15.17-2.03-22.59.36-24.61,7.92-41.37,24.75-51.97,47.64-7.51,16.22-9.32,33.97-10.33,51.67-.98,17.13.55,34.19,4.33,50.8,5.78,25.36,15.09,49.43,32.25,69.56,23.45,27.53,51.12,45.6,89.6,38.53,17.39-3.2,31.4-12.58,45.1-23.3-70.16-63.49-96.09-142.65-86.38-235.26ZM540.45,299.83c-43.62-39.6-87.48-79.42-132.01-119.85v206.11c45.28-2.02,82.97,12.27,109.43,51.31,7.44-7.22,14.66-14.09,21.67-21.17.83-.84.97-2.99.59-4.3-1.72-6.03-3.98-11.91-5.6-17.97-5.8-21.8-6.42-43.81-1.61-65.85,2.04-9.33,4.9-18.49,7.53-28.28ZM663.6,309.34c-3.31.9-6.83,1.35-9.88,2.79-11.83,5.58-19.8,14.69-24.03,27.12-3.84,11.3-5.98,22.84-3.04,34.56,2.72,10.82,14.51,19.79,26.02,20.86,11.63,1.08,26.4-6.19,30.94-16.99,4.39-10.42,7.23-21.53,10.21-32.49,1.09-4,1.76-8.74.67-12.59-3.32-11.74-18.74-22.61-30.91-23.27Z"/>
    </g>
  </g>
</svg>